# xmcd
#
# Track frame offsets:
#	183
#	11513
#	23638
#	36233
#	50465
#	59420
#	72020
#	88618
#	101488
#	116298
#	127220
#	146100
#	159810
#	170160
#	186805
#	199718
#	214898
#	229760
#	241385
#	253040
#	268290
#	285210
#
# Disc length: 4083 seconds
#
# Revision: 2
# Processed by: cddbd v1.4PL0 Copyright (c) Steve Scherf et al.
# Submitted via: CDmax 1.9
#
DISCID=3b0ff116
DTITLE=The Fabulous Thunderbirds - Butt Rockin'/T-Bird Rhythm
DYEAR=1900
DGENRE=
TTITLE0=I Believe I'm In Love
TTITLE1=One's Too Many
TTITLE2=Give Me All Your loving
TTITLE3=Roll, Roll, Roll
TTITLE4=Cherry Pink And Apple Blossom White
TTITLE5=I Hear You Knockin'
TTITLE6=Tip On In
TTITLE7=I'm Sorry
TTITLE8=Mathilda
TTITLE9=Tell Me Why
TTITLE10=On Orbit
TTITLE11=Can't Tear It Up Enuff
TTITLE12=How Do You Spell Love
TTITLE13=You're Humbuggin' Me
TTITLE14=My Babe
TTITLE15=Neighbour Tend To You Business
TTITLE16=The Monkey
TTITLE17=Diddy Wah Diddy
TTITLE18=Lover's Crime
TTITLE19=Poor Boy
TTITLE20=Tell Me (Pretty Baby)
TTITLE21=Gotta Have Some/Just Got Some
EXTD=
EXTT0=
EXTT1=
EXTT2=
EXTT3=
EXTT4=
EXTT5=
EXTT6=
EXTT7=
EXTT8=
EXTT9=
EXTT10=
EXTT11=
EXTT12=
EXTT13=
EXTT14=
EXTT15=
EXTT16=
EXTT17=
EXTT18=
EXTT19=
EXTT20=
EXTT21=
PLAYORDER=
